<svg id="visual" viewBox="0 0 900 600" width="900" height="600" xmlns="http://www.w3.org/2000/svg" xmlns:xlink="http://www.w3.org/1999/xlink" version="1.1"><g transform="translate(447.31444894950755 334.2519705045404)"><path d="M170.2 -244.7C226.9 -228.5 283.6 -191.9 286.1 -143.3C288.7 -94.7 237.1 -34 221.9 27.8C206.6 89.6 227.6 152.5 206.5 181.5C185.4 210.5 122.1 205.5 69.6 207.5C17 209.5 -24.9 218.4 -59 206.1C-93.1 193.7 -119.5 160.1 -164 130.2C-208.4 100.2 -271 74.1 -279.7 37.9C-288.5 1.8 -243.4 -44.4 -221.6 -105C-199.8 -165.5 -201.3 -240.5 -168.2 -267.6C-135.2 -294.6 -67.6 -273.8 -5.4 -265.4C56.8 -257 113.5 -261 170.2 -244.7" fill="#FDB565"></path></g></svg>